<svg id="Layer_1" data-name="Layer 1" xmlns="http://www.w3.org/2000/svg" viewBox="0 0 256 256"><title>bowl-back</title><polygon points="32.02 104.15 53.42 87.2 118.08 74.09 172.75 76.01 214.15 92 225.54 107.67 219.73 125.89 167.16 145.4 79.24 143.48 35.98 123.65 32.02 104.15" style="fill:#505f66"/><path d="M37.32,113.25l-0.42-4.3,4.19-9S77.61,82.4,99.24,81.13s69.08-2.24,89.32,4.16,31.17,18.87,31.17,18.87l0.88,4.67h15.12l-0.91-6.26s-4.16-4.49-15.09-14.08-37-13.43-49.08-17.27S109.48,68,109.48,68,68.07,75.37,58.3,78.89,26.67,98.07,26.67,98.07l-5.38,12.33,1.16,3.31A68.59,68.59,0,0,0,37.32,113.25Z" style="fill:#89a3af"/></svg>