<svg id="Layer_2" data-name="Layer 2" xmlns="http://www.w3.org/2000/svg" viewBox="0 0 256 256"><title>bowl-front</title><path d="M21.6,110.37l2.66,31.49s20.2,57.29,36,72.91,37.88,27.78,37.88,27.78l69.45-5.21s32.82-16.18,49.24-41.35,18.61-62,19.07-73.87c0.4-10.14-.23-10.23-0.23-10.23l-17.43,16.67L172,146.82,81.09,143,39.9,126.86Z" style="fill:#60727c"/><path d="M220.61,108.82l0.75,4-7,9.59s-31.87,17.27-50.24,17.91-52.34,2.56-78.62-2.56-41.4-13.43-44.66-17.27-3.49-6.72-3.49-6.72l0-.49a68.59,68.59,0,0,1-14.87.47L25,121.1s6,9.91,28.38,20.15S126,154.35,166,151.47s63.73-25.9,63.73-25.9l6.5-13.29-0.5-3.47H220.61Z" style="fill:#89a3af"/></svg>