
<svg xmlns="http://www.w3.org/2000/svg" version="1.1" xmlns:xlink="http://www.w3.org/1999/xlink" preserveAspectRatio="none" x="0px" y="0px" width="1024px" height="512px" viewBox="0 0 1024 512">
<defs>
<g id="Active_0_Layer2_0_FILL">
<path fill="#8DC449" stroke="none" d="
M 27.2 -54.7
Q 21.5 -59.1 17.95 -61.05 7.25 -66.85 -10.5 -65.25 -21 -64.3 -27.95 -56.75 -29.8 -54.7 -33.6 -50.5 -37.2 -46.95 -41.4 -45 -45.4 -43.15 -49.95 -42.25 -54.6 -41.55 -56.7 -41.05 -63.7 -39.35 -69.75 -30.3 -76.5 -20.2 -74.9 -8.15 -74.2 -3.15 -71.8 5.6 -70.35 10.85 -66.7 23.9 -64.35 32.6 -63.55 40.75 -63.1 45.1 -62.6 51.25 -61.95 55.8 -59.65 59.1 -57.05 62.9 -50.5 67.95 -37.45 78.1 -24.8 80.1 -14 81.85 6.2 78.6 18.9 76.6 32.9 75.75 43 74.45 53.85 67.95 65 61.3 67.9 48.6 68.75 44.7 69.35 37.6 70 29.95 70.55 26.95 71.25 23.1 72.6 19.2 74 15.1 74.3 13.5 75.6 7.05 73.1 -9 70.55 -25.45 59.95 -33.7 56.5 -36.4 49.45 -40.2 41.1 -44.75 37.65 -47 34.15 -49.3 27.2 -54.7
M 1.8 -71.7
Q 5.55 -72.85 4.3 -75 1.4 -80 -3.05 -80.75 -8.05 -81.6 -13.9 -76.6 -16.75 -74.15 -14 -72.5 -11.65 -71.1 -6.55 -70.85 -1.55 -70.65 1.8 -71.7
M 50.2 -70.6
Q 48.35 -71.75 43.75 -71.25 39.5 -70.75 35.2 -69.1 30.75 -67.35 29.1 -65.35 27.2 -63.05 29.9 -61.25 34.3 -58.3 41 -53.25 47.15 -49.15 55.5 -46.8 59.65 -45.65 60.75 -48.45 61.7 -50.85 60.15 -55.6 58.75 -60.05 55.95 -64.35 53 -68.8 50.2 -70.6 Z"/>
</g>

<g id="Active_0_Layer1_0_FILL">
<path fill="#0B6739" stroke="none" d="
M 57.75 -12.2
Q 52.3 -23.15 42.75 -31.5 32.9 -40.1 19.7 -44.7 6.55 -49.3 -6.95 -48.95 -23.55 -48.45 -36.35 -40.55 -50 -32.15 -57.3 -17.55 -64.6 -2.85 -62.95 13 -60.8 34 -45.05 50.05 -29.45 65.9 -8.6 68.9 4.9 70.85 17.85 67.4 30.45 64.1 40.5 56.2 50.7 48.25 56.55 36.95 62.75 25.1 63.2 11.25 63.55 -0.5 57.75 -12.2 Z"/>
</g>

<g id="Active_0_Layer0_0_FILL">
<path fill="#8DC449" stroke="none" d="
M 3 -25.15
Q 5.5 -24.45 8.25 -25.2 10.9 -25.9 11.6 -27.9 12.15 -29.65 11.05 -31.6 9.95 -33.55 8 -34.4 5.8 -35.35 3.7 -34.35 -3.15 -31.1 -0.5 -27.3 0.6 -25.8 3 -25.15
M 38.85 -24
Q 32.95 -28.25 27.5 -28.25 24.9 -28.25 23.9 -24.65 22.95 -21.25 23.9 -16.3 26.2 -4.05 35.1 0.6 43.65 5.05 46.65 -1.25 49.2 -6.65 46.75 -14.1 44.9 -19.7 38.85 -24 Z"/>
</g>

<g id="Active_1_Layer2_0_FILL">
<path fill="#8DC449" stroke="none" d="
M -17.45 -74.2
Q -18.2 -71.5 -12.75 -68.85 -10.9 -67.95 -8.8 -68.9 -6.9 -69.7 -5.75 -71.45 -4.55 -73.25 -4.95 -74.65 -5.4 -76.25 -7.8 -76.45 -16.7 -77.2 -17.45 -74.2
M 18.8 -65.2
Q 17.6 -62.3 23.25 -59.6 30.85 -55.9 35.7 -56.5 40.9 -57.2 37.2 -62.9 35 -66.25 32.15 -67.55 29.2 -68.9 24.8 -68.4 19.85 -67.85 18.8 -65.2
M 31.6 -50.2
Q 29.05 -51.15 15.4 -53.6 11.2 -54.35 4.35 -56.5 -2.95 -58.75 -6.1 -59.4 -18.4 -62 -30.2 -56.5 -37.55 -51.65 -40.7 -48.9 -44.95 -45.2 -51.25 -37.4 -53.7 -34.4 -58.4 -29.7 -63.55 -24.5 -65.5 -22.25 -73.3 -13.2 -74.7 -2.75 -76 7.15 -73.15 15.3 -71 21.4 -64.2 31.55 -61.7 35.25 -56.15 45.2 -50.9 54.6 -47.45 59.5 -36.1 75.7 -20.95 79.05 -4.5 82.7 7.3 80.1 14.8 78.45 30.6 70.55 34.7 68.5 43.3 64.9 51 61.7 54.65 59.7 66.4 53.35 70.95 42.3 75.5 31.25 72.25 17.15 71.2 12.55 68.95 6.25 66.25 -1.45 65.9 -2.6 63.85 -14.3 61.7 -21.05 57.85 -33.25 47.95 -40.4 37.15 -48.25 31.6 -50.2 Z"/>
</g>

<g id="Active_1_Layer1_0_FILL">
<path fill="#0B6739" stroke="none" d="
M 60.05 -4.7
Q 56 -17.6 47.45 -27.65 26.75 -52.1 -8.75 -49 -32.1 -47.05 -46.85 -33.8 -62.7 -19.5 -63.25 3.75 -63.55 16.1 -59.45 28.1 -55.25 40.5 -47.2 49.95 -28.5 71.8 1.75 69.5 27.45 67.5 45.3 50.45 60.85 35.6 62.65 18.75 63.85 7.5 60.05 -4.7 Z"/>
</g>

<g id="Active_1_Layer0_0_FILL">
<path fill="#8DC449" stroke="none" d="
M 4.45 -40.3
Q 3.35 -40.2 2.65 -39.3 -2.45 -32.9 5.1 -30.25 7.35 -29.45 8.6 -31.25 14 -39.05 4.45 -40.3
M 31.15 -34.25
Q 28.05 -34.45 26.05 -32.1 24.15 -29.85 25.05 -27.2 27.35 -20.35 30.85 -14.2 33.55 -9.5 38.45 -8.5 46.35 -6.85 46.9 -14.3 48.15 -30.65 31.15 -34.25 Z"/>
</g>

<g id="Active_2_Layer2_0_FILL">
<path fill="#8DC449" stroke="none" d="
M -20.9 -75
Q -22 -74.9 -22.7 -74 -27.65 -67.55 -18.95 -66.8 -17.6 -66.7 -16.9 -67.55 -12.45 -73.45 -20.9 -75
M 12.9 -66.8
Q 12.05 -66.7 11.15 -66.35 9.15 -65.6 10 -63.9 12.8 -58.1 21 -61.35 23.05 -62.15 22.2 -64 19.85 -69 12.9 -66.8
M 12.7 -56.1
Q 8.4 -54.9 2.6 -54.55 -3.35 -54.2 -7.95 -56.3 -9.1 -56.85 -14.35 -60.35 -17.65 -62.6 -20.5 -62.45 -24.35 -62.25 -30.25 -58.25 -40.9 -50.95 -48.95 -39.7 -57.85 -25.7 -64.05 -17.2 -72.4 -5.7 -72.3 9.2 -72.2 19.3 -67.2 37.85 -63.9 50.05 -52.25 58.1 -45.9 62.45 -35.5 67.1 -19.35 76.6 -17.55 77.4 -6.6 82.45 5.4 82.15 16.6 81.9 24.3 77.7 26.6 76.45 31.65 73.3 36.75 70.25 41.8 68 57.7 61 63.9 54.55 73.85 44.2 75.55 24.2 77.1 5.6 70.3 -6.4 68.95 -8.75 64.3 -15.25 60.6 -20.35 59.1 -24.15 53.2 -38.9 46.85 -46.3 41.35 -52.75 33.6 -55.55 23.05 -59.4 18.2 -57.95 15.05 -56.75 12.7 -56.1 Z"/>
</g>

<g id="Active_2_Layer1_0_FILL">
<path fill="#0B6739" stroke="none" d="
M -46.3 -29.6
Q -53.6 -21.25 -57.1 -10.6 -60.55 -0.1 -59.6 10.65 -56.5 44.55 -37.55 57.7 -21.5 68.85 8.25 66.3 33.95 64.1 47.15 48.6 58.9 34.85 60.45 11.05 62 -13.15 47.1 -28.95 30.25 -46.75 -3 -47.65 -29.8 -48.45 -46.3 -29.6 Z"/>
</g>

<g id="Active_2_Layer0_0_FILL">
<path fill="#8DC449" stroke="none" d="
M 8.45 -21.4
Q 5.1 -21.45 4.8 -18.35 4.45 -15.1 7.45 -15.75 14.5 -17.3 8.45 -21.4
M 19.35 -5.7
Q 18 -5.65 17 -4.6 16.3 -3.9 15.95 -3.15 12.55 4.3 23.3 4.8 24.5 4.85 25 3.9 29 -3.95 19.35 -5.7
M 6 -38.1
Q 11.65 -42.45 5.15 -45.55 -3.75 -43.95 2.95 -38.2 4.45 -36.9 6 -38.1
M 28.2 -35.55
Q 26.35 -35.1 25.95 -33.5 23.6 -22.6 36.45 -22.7 38.3 -22.7 38.75 -24.3 41.7 -34.65 29.85 -35.9 29.1 -35.8 28.2 -35.55 Z"/>
</g>

<g id="Active_3_Layer2_0_FILL">
<path fill="#8DC449" stroke="none" d="
M -24.5 -69.7
Q -25.8 -69.6 -26.25 -68.25 -26.65 -67.25 -25.85 -67.1 -20.2 -66.05 -24.5 -69.7
M 9.25 -64.45
Q 6.2 -63.9 6.55 -60.9 6.75 -59 8.55 -59.35 15.45 -60.95 9.25 -64.45
M 37.5 -60.6
Q 36.6 -60.3 30.8 -57.05 20.4 -51.3 5.35 -54.65 0.95 -55.65 -3.1 -57.4 -7.25 -59.4 -9.1 -60.2 -15.35 -63 -23.6 -61.45 -35.1 -59.3 -42.85 -49.65 -44.6 -47.4 -48.95 -41 -52.7 -35.4 -55.4 -32.4 -65.7 -21.05 -69.6 -11.7 -74.45 -0.1 -72.55 14 -69.45 36.85 -66.6 43.2 -63.05 51 -49.9 61.2 -49.4 61.6 -48.85 62 -34.95 72.6 -24.7 75.75 -12.35 79.55 5.75 76.65 11.3 75.75 32.55 74.05 42.35 73.3 49.6 68.85 54.4 65.9 58.25 62 63.65 56.45 67 49 70.4 41.5 73.1 27 74.55 19.25 72.35 11.25 68.1 -4.05 66.6 -13.55 64.85 -25.7 64.1 -30.7 62.75 -39.05 61.15 -43.75 57.2 -55.2 45.25 -60.1 41.1 -61.8 37.5 -60.6 Z"/>
</g>

<g id="Active_3_Layer1_0_FILL">
<path fill="#0B6739" stroke="none" d="
M -2.7 -46.2
Q -32.35 -47 -47 -30.5 -61.8 -13.85 -59.2 18.15 -57.4 40.45 -38.4 54.85 -32.75 59.1 -26.45 62 -11.3 68.95 7.55 67.85 23 66.9 34.05 62 44.25 57.45 50.7 49.55 62.6 34.9 62.15 8 61.85 -13.5 47.35 -28 30.05 -45.35 -2.7 -46.2 Z"/>
</g>

<g id="Active_3_Layer0_0_FILL">
<path fill="#8DC449" stroke="none" d="
M -0.7 -45.75
Q -3.55 -46.05 -3 -43.7 -2.25 -40.45 1.8 -42.3 8.05 -45.2 -0.7 -45.75
M 11.25 -19.55
Q 13.2 -20.3 13.35 -21.95 14.1 -29.35 5.25 -27.55 0.65 -27.05 1.6 -22.95 3.15 -16.5 11.25 -19.55
M 19.05 -11.6
Q 17.3 -10.85 17.5 -9.25 18.5 -0.5 27.9 3.3 29.35 3.9 30.75 3.95 39.3 4.25 35.75 -3.7 31.95 -12.15 23.1 -12.85 21.1 -12.5 19.05 -11.6
M 34.85 -29.15
Q 37.05 -38.75 25.2 -39.8 24.65 -39.7 23.95 -39.6 21.65 -39.3 22 -37.25 23.25 -28.95 33.1 -28.15 34.55 -28 34.85 -29.15 Z"/>
</g>

<g id="Active_4_Layer2_0_FILL">
<path fill="#8DC449" stroke="none" d="
M 55.8 -50.25
Q 55.55 -51.9 55 -53.3 51.55 -64.7 36.7 -64.4 34.85 -64.35 33.1 -63.95 31.5 -64.35 28.7 -63.7 27.95 -63.75 27.25 -63.7 24.9 -64.2 22.45 -64.3 20 -64.65 17.5 -64.85 13.75 -66.55 10.35 -69.15 9.4 -69.9 8.4 -70.5 3.9 -77.35 -5.35 -77.15 -10.35 -76.5 -14 -74.25 -15.6 -73.25 -16.9 -72 -17.65 -71.25 -18.3 -70.45 -18.4 -70.35 -18.45 -70.3 -18.55 -69.7 -18.7 -69.1 -29.05 -53.7 -47 -48.4 -50.3 -47.45 -52.2 -45.55 -52.95 -45.2 -53.7 -44.8 -62.8 -39.85 -64.2 -29.9 -65.65 -19.6 -67.8 -9.5 -71.4 7.6 -70.05 24.4 -70.4 26.35 -70.45 28.35 -70.8 33.4 -69.3 37.9 -68.2 41.9 -65.8 45 -65.25 46.1 -64.15 47.05 -64.2 47.2 -64.2 47.45 -57.25 56.05 -49.15 63.6 -47.5 65.1 -45.7 66.3 -44.05 69.55 -40.4 71.95 -37 74.2 -33.3 74.9 -30.7 76.15 -28 77 -15.3 81.05 -1.45 78.6 3.85 77.65 8.85 75.75 15.65 73.2 22.85 74.05 29.15 74.75 35.2 73.2 50.2 69.3 56.25 55.4 59.6 47.7 64.85 41.3 74.35 29.6 78.1 15 79.4 9.95 80.15 4.9 81.15 -2.05 78.9 -8.55 77.55 -12.55 74.3 -14.4 65.9 -19.25 60.8 -27 59.6 -28.85 58.35 -30.6 58.05 -31.75 57.8 -32.9 56.95 -36.7 57.2 -40.5 57.45 -44.45 56.5 -47.45 56.35 -48.95 55.8 -50.25 Z"/>
</g>

<g id="Active_4_Layer1_0_FILL">
<path fill="#0B6739" stroke="none" d="
M 57.2 -11.85
Q 52.85 -22.05 44.8 -29.85 24.8 -49.25 -9.2 -47.15 -35.2 -46.8 -48.6 -31 -60.35 -17.15 -61.2 6.7 -62.15 33.3 -49.5 49.25 -33.2 69.75 3.45 68.7 38.8 67.7 52.5 45.05 61.1 30.8 61.1 6.15 61.1 -2.65 57.2 -11.85 Z"/>
</g>

<g id="Active_4_Layer0_0_FILL">
<path fill="#8DC449" stroke="none" d="
M 25.2 -19.85
Q 17.2 -16.15 21.4 -7.9 25.9 0.9 35.85 4.2 39.05 5.25 39.35 2.05 41 -13.8 25.2 -19.85
M 10.9 -26
Q 13.65 -31.8 5.5 -31.05 4.65 -31 4 -30.35 -1 -25.15 6 -23.9 9.55 -23.25 10.9 -26
M 31.1 -34.15
Q 29.5 -39.75 22.5 -42.05 21.55 -42 21.6 -41.35 22 -35.1 30.25 -33.7 31.25 -33.5 31.1 -34.15 Z"/>
</g>

<g id="Active_5_Layer2_0_FILL">
<path fill="#8DC449" stroke="none" d="
M 67 -7.5
Q 64.3 -24.75 56.9 -32.95 53.8 -36.35 48.5 -39.95 41.7 -44.35 37.65 -47 25.6 -54.9 18.2 -56.2 11.15 -57.4 -10 -55.5 -21.7 -54.4 -27.7 -51.9 -34.8 -48 -41.4 -45 -50.25 -40.9 -53.05 -37.65 -57.4 -31.1 -62.5 -23.5 -69.9 -12.45 -70.6 -2.7 -71.2 6.1 -66.7 23.9 -63.65 36 -62.45 39.8 -60.75 45.25 -58.75 48.05 -57 50.6 -52.95 53.65 -47.05 57.95 -42.5 61.5 -27.6 73.1 -20.4 75.9 -10.9 79.6 6.2 78.6 22.95 77.65 29.8 74.5 32.5 73.25 37.15 70.15 43.9 65.65 47.5 63.5 59.4 56.35 64.7 46.35 68.15 39.9 70.55 26.95 72.1 18.7 71.25 14.25 69.05 5.4 67 -7.5 Z"/>
</g>

<g id="Active_5_Layer1_0_FILL">
<path fill="#0B6739" stroke="none" d="
M 57.75 -12.2
Q 52.3 -23.15 42.75 -31.5 32.9 -40.1 19.7 -44.7 6.55 -49.3 -6.95 -48.95 -23.55 -48.45 -36.35 -40.55 -50 -32.15 -57.3 -17.55 -64.6 -2.85 -62.95 13 -60.8 34 -45.05 50.05 -29.45 65.9 -8.6 68.9 4.9 70.85 17.85 67.4 30.45 64.1 40.5 56.2 50.7 48.25 56.55 36.95 62.75 25.1 63.2 11.25 63.55 -0.5 57.75 -12.2 Z"/>
</g>

<g id="Active_6_Layer2_0_FILL">
<path fill="#8DC449" stroke="none" d="
M 56.5 -30.8
Q 54.35 -35.45 52.7 -37.3 51.35 -38.8 49.15 -39.5 46.15 -40.3 43.9 -41.2 39.85 -42.8 35 -46 23.6 -53.6 11.9 -55 0.15 -56.35 -17 -52 -24.1 -50.2 -32.15 -48.4 -37.1 -47.25 -38.85 -46.1 -40.55 -45.05 -42.85 -41.75 -47.75 -34.8 -50 -31.9 -53.55 -27.35 -58.35 -21.35 -61.65 -17.1 -62.85 -14.2 -65 -8.95 -64 8 -62.9 27.5 -61.7 31.95 -60.4 36.85 -52.5 50 -45.4 61.8 -34.65 67.2 -28.05 70.45 -14.5 73 -6.4 74.5 -0.3 73.25 19.4 69.05 23 68.5 42.05 65.5 46.45 62.95 49.35 61.25 52.1 57.7 53.5 55.9 58.5 48.25 66.4 36.2 67.7 28.8 68.9 21.75 67 0.6 65.9 -11.1 63.4 -17.1 59.5 -24.2 56.5 -30.8 Z"/>
</g>

<g id="Active_6_Layer1_0_FILL">
<path fill="#0B6739" stroke="none" d="
M -46.3 -29.6
Q -53.6 -21.25 -57.1 -10.6 -60.55 -0.1 -59.6 10.65 -56.5 44.55 -37.55 57.7 -21.5 68.85 8.25 66.3 33.95 64.1 47.15 48.6 58.9 34.85 60.45 11.05 62 -13.15 47.1 -28.95 30.25 -46.75 -3 -47.65 -29.8 -48.45 -46.3 -29.6 Z"/>
</g>

<g id="Active_7_Layer2_0_FILL">
<path fill="#8DC449" stroke="none" d="
M 64 -8.5
Q 61 -20.35 60 -23.6 58.5 -28.2 56.75 -30.2 55.5 -31.55 51.4 -34.1 45.85 -37.5 41.15 -41.15 28.25 -51.2 20.3 -52.9 14.75 -54.15 -5 -53 -8.85 -52.8 -18.9 -52.4 -23.8 -52.25 -25.8 -51.75 -28.1 -51.25 -31.3 -49.4 -36.3 -46.3 -40.75 -43.65 -52.55 -36.55 -57.95 -25.8 -61.2 -19.2 -63.75 -5.65 -65 1.2 -66.6 8.15 -67.15 14.2 -64.5 31 -61.9 47.75 -55.55 53.45 -53.25 55.55 -48 58.4 -40.85 62.3 -37.5 64.5 -26.8 71.5 -16.35 72.45 -12.2 72.8 -5.05 72.55 3.9 72.15 9.5 72 22.85 71.7 26.8 70.8 29.6 70.15 40.05 65.35 48.9 61.25 51.4 58.35 55.45 52.1 60.5 44.5 67.75 33.65 68.25 20.9 68.65 9.9 64 -8.5 Z"/>
</g>

<g id="Active_7_Layer1_0_FILL">
<path fill="#0B6739" stroke="none" d="
M 57.2 -11.85
Q 52.85 -22.05 44.8 -29.85 24.8 -49.25 -9.2 -47.15 -35.2 -46.8 -48.6 -31 -60.35 -17.15 -61.2 6.7 -62.15 33.3 -49.5 49.25 -33.2 69.75 3.45 68.7 38.8 67.7 52.5 45.05 61.1 30.8 61.1 6.15 61.1 -2.65 57.2 -11.85 Z"/>
</g>
</defs>

<g transform="matrix( 1, 0, 0, 1, 128.25,128.1) ">
<g transform="matrix( 1, 0, 0, 1, 0,0) ">
<use xlink:href="#Active_0_Layer2_0_FILL"/>
</g>

<g transform="matrix( 1, 0, 0, 1, 0,0) ">
<use xlink:href="#Active_0_Layer1_0_FILL"/>
</g>

<g transform="matrix( 1, 0, 0, 1, 0,0) ">
<use xlink:href="#Active_0_Layer0_0_FILL"/>
</g>
</g>

<g transform="matrix( 1, 0, 0, 1, 384.75,123.85) ">
<g transform="matrix( 1, 0, 0, 1, 0,0) ">
<use xlink:href="#Active_1_Layer2_0_FILL"/>
</g>

<g transform="matrix( 1, 0, 0, 1, 0,0) ">
<use xlink:href="#Active_1_Layer1_0_FILL"/>
</g>

<g transform="matrix( 1, 0, 0, 1, 0,0) ">
<use xlink:href="#Active_1_Layer0_0_FILL"/>
</g>
</g>

<g transform="matrix( 1, 0, 0, 1, 640.25,126.65) ">
<g transform="matrix( 1, 0, 0, 1, 0,0) ">
<use xlink:href="#Active_2_Layer2_0_FILL"/>
</g>

<g transform="matrix( 1, 0, 0, 1, 0,0) ">
<use xlink:href="#Active_2_Layer1_0_FILL"/>
</g>

<g transform="matrix( 1, 0, 0, 1, 0,0) ">
<use xlink:href="#Active_2_Layer0_0_FILL"/>
</g>
</g>

<g transform="matrix( 1, 0, 0, 1, 896.25,127.15) ">
<g transform="matrix( 1, 0, 0, 1, 0,0) ">
<use xlink:href="#Active_3_Layer2_0_FILL"/>
</g>

<g transform="matrix( 1, 0, 0, 1, 0,0) ">
<use xlink:href="#Active_3_Layer1_0_FILL"/>
</g>

<g transform="matrix( 1, 0, 0, 1, 0,0) ">
<use xlink:href="#Active_3_Layer0_0_FILL"/>
</g>
</g>

<g transform="matrix( 1, 0, 0, 1, 128.25,384.1) ">
<g transform="matrix( 1, 0, 0, 1, 0,0) ">
<use xlink:href="#Active_4_Layer2_0_FILL"/>
</g>

<g transform="matrix( 1, 0, 0, 1, 0,0) ">
<use xlink:href="#Active_4_Layer1_0_FILL"/>
</g>

<g transform="matrix( 1, 0, 0, 1, 0,0) ">
<use xlink:href="#Active_4_Layer0_0_FILL"/>
</g>
</g>

<g transform="matrix( 1, 0, 0, 1, 384.85,382.9) ">
<g transform="matrix( 1, 0, 0, 1, 0,0) ">
<use xlink:href="#Active_5_Layer2_0_FILL"/>
</g>

<g transform="matrix( 1, 0, 0, 1, 0,0) ">
<use xlink:href="#Active_5_Layer1_0_FILL"/>
</g>
</g>

<g transform="matrix( 1, 0, 0, 1, 641.35,382.9) ">
<g transform="matrix( 1, 0, 0, 1, 0,0) ">
<use xlink:href="#Active_6_Layer2_0_FILL"/>
</g>

<g transform="matrix( 1, 0, 0, 1, 0,0) ">
<use xlink:href="#Active_6_Layer1_0_FILL"/>
</g>
</g>

<g transform="matrix( 1, 0, 0, 1, 895.2,382.9) ">
<g transform="matrix( 1, 0, 0, 1, 0,0) ">
<use xlink:href="#Active_7_Layer2_0_FILL"/>
</g>

<g transform="matrix( 1, 0, 0, 1, 0,0) ">
<use xlink:href="#Active_7_Layer1_0_FILL"/>
</g>
</g>
</svg>
