<svg id="Layer_1" data-name="Layer 1" xmlns="http://www.w3.org/2000/svg" viewBox="0 0 150.05 161.65"><title>color</title><path d="M630.54,335c27.86-2.53,31.91,7.6,48.12,18.23s31.4,12.16,35.45,38,0,22.29-2.53,36,1,30.39-16.71,41-22.29,6.58-47.61,10.64-38.49,3.55-56.73-10.64-8.61-15.7-16.21-44.07-13.17-39-3-54.2,15.19-8.61,28.36-14.69S612,336.67,630.54,335Z" transform="translate(-565.78 -319.37)" style="fill:#8cc63f"/><path d="M634.09,351.28c18-.52,36.54,6,49.68,17.46a69.21,69.21,0,0,1,22.46,43.46c4.33,42.29-37.23,62.19-73.81,56.94-27.58-4-51.44-27.74-54.36-55.91a56.82,56.82,0,0,1,26.59-53.58A59.24,59.24,0,0,1,634.09,351.28Z" transform="translate(-565.78 -319.37)" style="fill:#006837"/><path d="M687.77,386.14c2.67,8,1,21.27-11.65,14.69S661.44,372,668.53,372,685.24,378.54,687.77,386.14Z" transform="translate(-565.78 -319.37)" style="fill:#8cc63f"/><path d="M644.72,365.88c6-2.82,12.16,7.09,4.56,9.12S635.1,370.44,644.72,365.88Z" transform="translate(-565.78 -319.37)" style="fill:#8cc63f"/><path d="M627.14,323.62c8.23-7,14.63-4.51,18.19,1.59S618.92,330.66,627.14,323.62Z" transform="translate(-565.78 -319.37)" style="fill:#8cc63f"/><path d="M691.23,329.65c7.7,4.89,17.08,27.05,5.31,23.77-13.4-3.74-16.79-8.57-25.62-14.46C663.18,333.78,686.1,326.39,691.23,329.65Z" transform="translate(-565.78 -319.37)" style="fill:#8cc63f"/></svg>