<svg id="Layer_1" data-name="Layer 1" xmlns="http://www.w3.org/2000/svg" viewBox="0 0 256 256"><title>go-button-inactive</title><path d="M50.62,227.32c20.27,17.37,70.77,34.1,119.34,19,36.7-11.42,79.78-50.83,83.06-101-1.72-1.28-4.09-3.15-4.09-3.15s3.31-4.75,4.41-6.57c0.8-57.72-20.91-98.43-78-124.26C123-12.33,44.56,13.81,15.72,74c-1.37,2.86-2.14,4.16-3.25,7.06,1.11,4.8,2,9.32,2,9.32S9.92,94.62,7,96.85C-3.1,144.65,6.88,189.83,50.62,227.32Z" style="fill:#b5b1a7"/><path d="M131.32,12.09c90.19,0,116.16,73.11,116.16,108.76s-19.3,111-108.73,118.38C63.35,245.47,8,203.66,15.87,109.59,21,48.71,79.2,12.09,131.32,12.09Z" style="fill:#e0dbca"/><polygon points="6.96 96.89 17.17 99.26 23.24 92.14 21.26 84.91 12.48 81.03 12.76 90.04 6.96 96.89" style="fill:#7a7873"/><polygon points="253.42 135.71 245.59 130.52 223.3 128.87 244.18 138.64 248.88 142.25 253.42 135.71" style="fill:#8e8b85"/><path d="M62.5,149.91c-12.49-22-7.87-58.39,8.28-73.3S111,44.3,141.19,58.38,172.66,79.5,176,88.61s4.56,14.08,4.56,14.08,17.81-1.24,24.43,14.91,10.35,32.3-5,47.63-41,18.22-41,18.22-31.06,23.19-57.15,5.8S72.86,168.13,62.5,149.91Z" style="fill:#b5b1a7"/><path d="M135.39,101.87c5,3.31-8.2,21.78-6.13,26.75s13.17,19.64,22.28,15.5,15.74-13.25,17.81-11.6-8.7,15.32-14.08,16.57-21.95,3.73-29-5.38-8.7-22.78-5-32.72S135.39,101.87,135.39,101.87Z" style="fill:#e0dbca"/><polygon points="112.07 67.71 112.76 53.21 105.24 42.41 106.89 54.39 105.69 68.64 112.07 67.71" style="fill:#8e8b85"/><polygon points="168.44 145.3 165.15 140.84 160.92 139.66 163.74 142.72 165.85 148.35 168.44 145.3" style="fill:#8e8b85"/><polygon points="12.76 90.04 12.48 81.03 19.68 84.03 21.16 84.81 23.24 92.14 12.76 90.04" style="fill:#8e8b85"/><path d="M198.07,116.88l-10.42-6-7.32.48-0.25,16.73a90.24,90.24,0,0,1-11.66,17.3l-3.48.75,0.82,2c-3.51,3.34-7.39,5.89-11.36,6.35-29.93,3.46-39.48-.77-40.15-31.47s32.12-30.17,32.12-30.17l5.18,7.68-9.1,3.94s-6.45,13.79-6.64,21.15,14.83,16.45,25.9,7.67c8.26-6.55,11.6-16.8,6.18-38.5C163.12,75.7,141.8,64.42,112.1,67.67L106,64.79l-0.52,3.82c-2,.35-4,0.75-6.07,1.23-36.21,8.38-48.52,76,3.79,109.37,24.42,15.57,55.2-4.27,55.2-4.27s23.15,6.51,38.76-20.57S198.07,116.88,198.07,116.88Z" style="fill:#605c5c"/></svg>