<svg id="Layer_1" data-name="Layer 1" xmlns="http://www.w3.org/2000/svg" viewBox="0 0 19.67 23.24"><title>no-tag</title><path d="M637.08,399.05l-2.84.83a5.73,5.73,0,0,0,2.24,11.23,42.52,42.52,0,0,0,4.11-1.34L643,409a5.69,5.69,0,0,0,2.68-1.29C650.31,404,645.33,396.52,637.08,399.05Z" transform="translate(-629.7 -387.96)" style="fill:#494646"/><path d="M644,399.82a10.78,10.78,0,0,1-.84,2.35L639,403.64l-1.16.63-1,.79-1.42.4-2.28,1.14a6.25,6.25,0,0,1-.64,0,14,14,0,0,0-2.18.15s1,2.86,2.93,3.54a7.46,7.46,0,0,0,3.94.15l6.24-2.11a5.81,5.81,0,0,0,1.54-.49C649,405.62,645.46,400.28,644,399.82Z" transform="translate(-629.7 -387.96)" style="fill:#999"/><path d="M649.32,403V390.88s-2-3.06-5.22-2.91a7.08,7.08,0,0,0-4.95,2.33l1.05,13.4,1.53-.11c0.48,2-.83,4.29,3.06,4.8C648.32,407.36,649.69,405.38,649.32,403Z" transform="translate(-629.7 -387.96)" style="fill:#494646"/><path d="M645.13,407.9a6.73,6.73,0,0,0,2.4-1.25,3.65,3.65,0,0,0,.95-1.7s-0.76-2-2.17-2.2a3.94,3.94,0,0,0-3.81,1.37l-0.44-6.4,0.21-8.81-1.33.58-1.17.88,1.15,9.09,0.42,4.75a5,5,0,0,0-1.67-.26C640.55,407.67,642.19,409,645.13,407.9Z" transform="translate(-629.7 -387.96)" style="fill:#999"/></svg>