<svg id="Layer_1" data-name="Layer 1" xmlns="http://www.w3.org/2000/svg" viewBox="0 0 62.61 109.69"><title>red-tag</title><path d="M639.09,361.37l-2.84.83a5.73,5.73,0,0,0,2.24,11.23,42.52,42.52,0,0,0,4.11-1.34l2.4-.81a5.69,5.69,0,0,0,2.68-1.29C652.32,366.31,647.34,358.84,639.09,361.37Z" transform="translate(-609.06 -344.84)" style="fill:#494646"/><path d="M646,362.14a10.78,10.78,0,0,1-.84,2.35L641,366l-1.16.63-1,.79-1.42.4-2.28,1.14a6.25,6.25,0,0,1-.64,0,14,14,0,0,0-2.18.15s1,2.86,2.93,3.54a7.46,7.46,0,0,0,3.94.15l6.24-2.11a5.81,5.81,0,0,0,1.54-.49C651,367.93,647.48,362.59,646,362.14Z" transform="translate(-609.06 -344.84)" style="fill:#999"/><polygon points="57.91 108.81 57.91 107.85 58.95 107.68 60.17 105.33 61.95 103.23 60.3 101.23 57.3 100.1 43.53 100.89 16.7 101.5 8.01 102.83 5.64 103.85 3.73 106.98 3.04 108.61 33.78 108.99 57.91 108.81" style="fill:#d34853;stroke:#962336;stroke-miterlimit:10"/><polygon points="0.63 7.55 0.79 6.26 1.85 6.11 2 5.13 4.54 2.45 6.59 1.91 6.48 12.15 6.79 47.55 8.01 102.83 7.28 103.83 6.38 104.55 7.19 105.06 5.37 105.36 4.25 106.99 3.85 107.9 3.04 108.61 2.63 94 1.51 56.68 0.5 16.61 0.63 7.55" style="fill:#d34853;stroke:#962336;stroke-miterlimit:10"/><path d="M616.37,346.66l7.54-.33,0,0.19,0.29,1.45,0.7-1.56,12.74-.51,0.77,0.51,0.34-.34,18.72-.56L657.9,346l0.68-.38,9.45-.3,0.77,0.09,0.6,0.81L669.73,385l1.3,63.17-3.1.73L667,446.49l-1.09,2-10.58.36-2-1.28-24.07,1.28-2-1.28-1.82.73-9.12.36-0.91-23-1.09-35.19V356.77l-0.73-9.48Zm20.55,28c4.74,3.59,10.37.72,11.23-.13l0.86-.86s1-5.48-.2-7c-2-2.63-3.42-4.35-6.29-5.07a9.31,9.31,0,0,0-8.82,2.21,9.78,9.78,0,0,0-.2,6.16A12.24,12.24,0,0,0,636.92,374.67Z" transform="translate(-609.06 -344.84)" style="fill:#c1272d;stroke:#962336;stroke-miterlimit:10"/><path d="M634,363.47a4.15,4.15,0,0,1,.87-1.51,11.23,11.23,0,0,1,2.6-1.67,18.49,18.49,0,0,1,2.72-.71l0.31-.68,0.36,0.17,0.12,0.29s3.59-.36,5.45.85a11.39,11.39,0,0,1,2.83,2.49c0.27,0.29.58,0.73,0.58,0.73l0.29,0,0.27,0.41-0.1.27a21.18,21.18,0,0,1,.92,3.69,8.31,8.31,0,0,1-.44,2l0.75,0.38-0.78.42a16,16,0,0,1-.85,2.1,8,8,0,0,1-2,1.89l0.78-3.66,0.41-.32-0.52-.32s0.28-3.44,0-4a4.72,4.72,0,0,0-.6-0.87l0.12-.17-0.34-.44-0.19,0a9.68,9.68,0,0,0-2.2-2.05,20.7,20.7,0,0,0-4.48-1.34l-0.11-.52h-0.51l0,0.34s-0.24-.26-1.4,0a11.25,11.25,0,0,0-3.55,1.35A10.29,10.29,0,0,1,634,363.47Z" transform="translate(-609.06 -344.84)" style="fill:#d34853;stroke:#962336;stroke-miterlimit:10"/><path d="M641.92,433.38" transform="translate(-609.06 -344.84)" style="fill:#29abe2;stroke:#145268;stroke-miterlimit:10"/><path d="M651.33,365.33V353.2s-2-3.06-5.22-2.91a7.08,7.08,0,0,0-4.95,2.33l1.05,13.4,1.53-.11c0.48,2-.83,4.29,3.06,4.8C650.33,369.68,651.7,367.69,651.33,365.33Z" transform="translate(-609.06 -344.84)" style="fill:#494646"/><path d="M647.14,370.22a6.73,6.73,0,0,0,2.4-1.25,3.65,3.65,0,0,0,.95-1.7s-0.76-2-2.17-2.2a3.94,3.94,0,0,0-3.81,1.37l-0.44-6.4,0.21-8.81-1.33.58-1.17.88,1.15,9.09,0.42,4.75a5,5,0,0,0-1.67-.26C642.57,370,644.2,371.32,647.14,370.22Z" transform="translate(-609.06 -344.84)" style="fill:#999"/><path d="M652.88,424.1a9.89,9.89,0,0,0,6.21-11.63c-1.79-7.06-6.21-10.92-10.65-12.61s-10.74-1.15-10.74-1.15,5.73,2.7,8,4.88a10.07,10.07,0,0,1,3.11,5.33s-6.39,2-5.86,7.1S647.57,425.88,652.88,424.1Z" transform="translate(-609.06 -344.84)" style="fill:#e0dbca"/><path d="M628.8,422.53a9.89,9.89,0,0,0,6.8,11.3c7,2.08,12.56.27,16.28-2.68s6.5-8.63,6.5-8.63-5,4.16-8.29,4.35a37.79,37.79,0,0,1-6.17-.06s0.6-6.91-4.09-9.1S630,417.05,628.8,422.53Z" transform="translate(-609.06 -344.84)" style="fill:#e0dbca"/><path d="M640.9,402.35c-2.48-2.68-8-3.75-12.28.61a16.12,16.12,0,0,0-4.76,15.19,59.94,59.94,0,0,0,3.2,10.3s0.25-6.83.53-8.88c0.44-3.2,3.28-6.84,3.28-6.84s6.57,5.77,10.47,1.15C644.76,409.86,644.1,405.82,640.9,402.35Z" transform="translate(-609.06 -344.84)" style="fill:#e0dbca"/></svg>