<svg id="Layer_1" data-name="Layer 1" xmlns="http://www.w3.org/2000/svg" viewBox="0 0 1209.41 118.46"><title>sensei-sense</title><path d="M1061.17,354.67l-13.45-13.45s-21.71,4.47-30.44,17.7c-11,16.63-7.08,24.42-7.08,24.42s-8.49,14.16,0,24.07A31,31,0,0,0,1030,418s7.08,15.93,20.53,14.16,22.3-15.93,22.3-15.93l8.49-.35s15.93-10.62,15.93-21.59-22.3-18.76-22.3-18.76-22.3-6.37-24.77,8.14,12.74,18.4,12.74,18.4-7.08-5.31-1.06-11,13.09-.35,13.09-0.35,9.2,6,2.12,13.45-22.65,13.8-34,7.43c-8.69-4.89-11-17.7-7.79-28.67s13.09-15.93,19.82-17.7,15.57-3.89,15.57-3.89,27.61,18,54.86,27.25c26.37,8.9,57.33.35,57.33,0.35l61.35-7.05-1.06-5.31s-53.21,4.58-61.35,4.58-49.55-3.89-68-23.36S1061.17,354.67,1061.17,354.67Z" transform="translate(-34.86 -341.22)" style="fill:#444141"/><path d="M960.66,377.68s1.77-19.47,16.28-17.34,24.42,2.83,22.65,26.19-12,29.38-22.65,24.42-2.83-20.17,2.83-19.82,5.66,4.6,5.66,4.6-4.6,3.54-2.12,6.37,6.72,3.19,8.49.35,10.26-18.4-2.83-21.24-28.31.35-29.73,15.57,6.72,25.13,14.16,25.84,15.93-3.19,23-2.48a94.18,94.18,0,0,1,15.93,3.54s-10.76,2.62-30.79,11.68c-14.86,6.72-28-14.86-28-14.86s-18.76-5.66-16.63-26.9C939.73,365.75,960.66,377.68,960.66,377.68Z" transform="translate(-34.86 -341.22)" style="fill:#444141"/><path d="M1106.83,388.29l-2.12,5s18.76,15.22,40,13.8,81.52-9.53,81.52-9.53l-1.42-2.83s-55.33,9.18-81.17,8.12S1106.83,388.29,1106.83,388.29Z" transform="translate(-34.86 -341.22)" style="fill:#444141"/><path d="M1083.12,426.16c5.43-1.09,6.72,4.6,6.72,4.6a4.67,4.67,0,0,0,6.37,0c3.54-2.83,4.25-9.2,4.25-9.2l-3.54-.71,2.48-5,10.26-1.42,1.06,6.72-5.31.35s1.42,7.43-3.54,11.68c-6.27,5.37-16.28,6.72-20.53,2.48S1079.58,426.87,1083.12,426.16Z" transform="translate(-34.86 -341.22)" style="fill:#444141"/><path d="M1102.94,403.51v5.66l10.26-1.42,5.66,6.72s-3.19,5.66-2.48,11,9.82,11.78,9.82,11.78,7.52-1.87,8.93-9.3-0.35-13.8-3.54-16.28c-6.13-4.77-14.86-8.49-20.88-9.2S1102.94,403.51,1102.94,403.51Z" transform="translate(-34.86 -341.22)" style="fill:#444141"/><path d="M1058.73,441.43s-1.09,10.22,8.82,10.57a61.63,61.63,0,0,0,17.34-1.77s11.33,10.62,23,4.25,9.91-15.93,9.91-15.93l-3.89-2.83s-8.85-2.12-12,3.19-17,6.91-23,4.43-7.42-14.28-15.8-7.8C1058.34,439.21,1058.73,441.43,1058.73,441.43Z" transform="translate(-34.86 -341.22)" style="fill:#444141"/><path d="M167,351.87l21,4.16,11.43,9.09-2.6,8.31s-14.55.26-23.12,4.68a86.05,86.05,0,0,0-16.37,11.64s14.29,3.43,21,9.66,15.85,17.93,15.85,17.93-4.42,16.37-15.85,24.42S156.89,455,151.69,456.82A85.19,85.19,0,0,1,141,459.68v-3.9l-12.78-10.13a46.14,46.14,0,0,0,7.62-3.92c3.49-2.54,5.61-7.51,5.61-7.51l2.86,0.74,3.28,0.63A86.23,86.23,0,0,0,159,428.77C163.38,425.39,174,415,174,415s-3.12-5.72-15.07-9.22-20-5.07-23.9-8.7a22.5,22.5,0,0,1-5.46-9.09l10.65-17.67,5.72-4.94a48.73,48.73,0,0,0,12.21-5.72A52.73,52.73,0,0,0,167,351.87Z" transform="translate(-34.86 -341.22)" style="fill:#444141"/><path d="M212,353.43L209.1,367.2l1.43,8.05h-3.25l-3.38,43.13-6.49,26.76,4.42,5.72,59-8.83v-2.34l-2.34-1,7.79-2.6V424.87l-34.42,3.9-13.9.78-0.26-11.17,4.16-9.09,22.86-1.82,1.3-3.38a43.68,43.68,0,0,0,12.47-1.95,15.56,15.56,0,0,0,7.79-5.85l-6.49-2.6v-2.6l-29.88.78-3.38-.78,2.34-15.59,26.76-1.82,0.78-2.34H240.54L236.9,368l29.36-.26,3.64-10.39-3.38-3.9-43.13-1.56Z" transform="translate(-34.86 -341.22)" style="fill:#444141"/><path d="M273.27,439.16l3.9,2.34,2.6,6.17,3.38-4.25,5.72-4.25s1.56-21.82,3.64-31.43,5.72-23.64,5.72-23.64,14.29,29.36,18.19,39.23,7.27,15.07,7.27,19.22v8.31s4.94,1.82,8.57,0a61.78,61.78,0,0,0,5.72-3.18l4.68-3.05,3.12-.52s4.68-40.53,5.72-44.16,9.61-37.15,9.61-37.15l-3.64-4.42L349.39,355l-2.6,1.3-2.6-1.3-9.87,62.61s-18.19-35.07-19.22-41.31-8.05-20-8.05-20l-2.6,1v2.6L296.91,355H286.26s-9.61,33.8-11.43,48.34S273.27,439.16,273.27,439.16Z" transform="translate(-34.86 -341.22)" style="fill:#444141"/><path d="M427.63,362.46l-6.1,7.63s-17.23.85-25.71,5.37-13.52,17-13.52,17l18.82,9.88,0.53-2.67,10.6,4.81,0.27-3.53s13.25,10.18,13.52,13-2.65,20.07-8,23.46-25.45,19.22-39.5,17.52-19.35-9.61-19.35-9.61v-5.09l13.07-16.64,4.41,0.37s-0.52,14.57,13.8,5.81,9.54-12.66,9.54-12.66-17.23-6.87-24.92-14.77a161.71,161.71,0,0,1-13.25-15.53s9-12.18,17.21-19.53,14.33-9.05,22.28-11.31,19.45-3.39,19.45-3.39Z" transform="translate(-34.86 -341.22)" style="fill:#444141"/><path d="M430.71,447.67l8.05,3.18,56.37-7.27v-6.23l5.46-2.6v-8.31s-18.45-2.6-32.47,0S446,428.77,446,428.77l1.3-5.72h3.12L455.39,406s33,3.83,37.15,2.79,6-7.4,6-7.4l-3.38-3.25,1-2.6,3.12-1.3v-2.34L458.5,394,464,375.77l4.68-5.2s19.22,1.82,26.76,0,7.53-12.73,7.53-12.73h4.68v-4.68a125.34,125.34,0,0,0-34-1.3c-19.22,1.82-27.28,1.56-27.28,1.56L443.7,374l-3.12,1.56L433.82,421l2.34,1.3-0.52,7.27S432,434,430.71,437.6,430.71,447.67,430.71,447.67Z" transform="translate(-34.86 -341.22)" style="fill:#444141"/><path d="M512.82,441.79l5.72,5.13-2.86,9.42h9.87s2.6-4.16,4.68-7.27a29.75,29.75,0,0,1,4.42-5.2s-2.34-21.3-1-35.85,10.65-46.24,10.65-46.24l-2.34-5.46s-2.6,1.3-4.16,0-2.08-5.2-2.08-5.2l-12.47,3s-6.49,42.72-7.79,57S512.82,441.79,512.82,441.79Z" transform="translate(-34.86 -341.22)" style="fill:#444141"/><path d="M608.61,452.94l18.51-14.39v3.53s9-9.84,11.8-14.13,5.09-6.56,3.24-11.86-25-11.25-32.17-14.46-11.34-11.79-3.47-17.09,26.84-10.35,26.84-10.35l4.86,4.29,5.55-7.82s-5.55-9.9-9.49-13.41S620,352,610.93,358s-27.54,23.47-26.84,31,12,24.48,24.53,26.25S625,419.88,625,419.88s-11.11,14.39-21.29,14.64a67.33,67.33,0,0,1-17.59-1.77l-2.1,3.28-5.54,1.51,1.62,3,2.55,3.79s9.26,5.55,8.33,8.58,6.25,1.82,6.25,1.82S602.13,456.48,608.61,452.94Z" transform="translate(-34.86 -341.22)" style="fill:#444141"/><path d="M663,357.06s10.13-3.9,29.1-5.2,29.62,5.2,29.62,5.2l-5.46,11.17-8.83,5.2-28.58,3.38L677,392.14l34.29-3.64,4.94,9.61-2.08,3,2.08,3.4-35.59,5.07h-9.09l-2.08,19.22,41.83-4.16,5.2,2.34s0,12-2.08,12.73-2.6,3.38-2.6,3.38l-52.22,7.79-10.65-3.18,7.53-44.75h-4.16l5.2-20.13,4.16-4.68-4.16-7.79Z" transform="translate(-34.86 -341.22)" style="fill:#444141"/><path d="M800.65,354.73L797,356l-3.51-4.16s-10,31.26-13.38,49.4c-0.27,1.43-.53,2.94-0.78,4.51l-21.56-47.94-4.41,3.53-8.58-9.5-9.61,4.42s1.56,15.07-1.82,23.38S724,438.38,724,438.38l5.77,6.75,10.08-6s1.56-28.06,3.38-34.68c0.87-3.16,3.44-12.83,5.9-22.09l26.24,55.28c-0.77,7.71-1.23,13.19-1.23,13.19l5.2,4.1,8.57-7.29,7.53-2.53s4.16-38.19,6.23-49.1,11.17-33.51,11.17-33.51Z" transform="translate(-34.86 -341.22)" style="fill:#444141"/><path d="M816.75,388.5c1-11.43,27.28-30.66,27.28-30.66L857.54,355s23.38,3.64,23.38,7.27v10.91s-30.14,6-33.77,10.65a66.41,66.41,0,0,1-4.94,5.92s9.09-1.25,20.26,9.66a101.74,101.74,0,0,1,17.41,22.86s-12.21,23.64-23.12,27.28-26,7.53-26,7.53-17.41-15.85-17.93-20.26,4.68-6.49,4.68-6.49,3.9,6.23,10.91,5.2,27.8-8.57,29.36-13.51-24.42-12.73-30.66-17.54S816.75,388.5,816.75,388.5Z" transform="translate(-34.86 -341.22)" style="fill:#444141"/><path d="M899.89,428.51l6-18.19,27.92-5.43a29.86,29.86,0,0,1-1.28-8.16,56.85,56.85,0,0,1,1.46-9.82l-3.46-2.17L909,391.1l3.64-15.33,29-4.2s3.31-3.74,6.32-4.6c2.12-.61,7.62-0.57,7.62-0.57l2.73-5.6L958,357.19l-0.29-2.87-61.41.67-3.38-1.3-2.08,28.84s-1.56,30.92-3.64,37.93-6.23,23.9-6.23,23.9l6.23,6.49L944.31,442l2.08-4.42,5.72-2.86-0.62-11.6-6.42-3Z" transform="translate(-34.86 -341.22)" style="fill:#444141"/><path d="M569.18,406c-3,2.4-7.14-.08-7.09-2.1s1.82-5.79,1.82-5.79L566.4,397l-1.42-2.1s-9-.15-8.79,8.26,2.8,9.56,11,8.61c3.63-.42,7-7.23,7-7.23l0.07-4.58,2-.13,2.85,1.64s4,2.85-.25,10.26-10.61,5.63-10.61,5.63-8.43,5.43-15.11,1.17c-14.32-9.13-10.95-27.64-1-29.94s17.25,0.89,18.74,6.83S571.44,404.19,569.18,406Z" transform="translate(-34.86 -341.22)" style="fill:#444141"/><path d="M34.86,435.74s12.85-12,24.17-13.65c18.31-2.72,24.22,1.42,54.43,20,8.7,5.36,27.55-1,27.4-16.83-0.11-11.93-11.4-21.43-19.62-23-11.72-2.19-16.62,8.24-11.6,18.83s10.94,1.71,12.59-1.82c2.27-4.83-4.82-8.29-4.82-8.29l3.24-1.83s4.56,5,6.06,8.19c3.34,7-3.27,14.63-12,13.32-11.2-1.68-16.19-7.76-32.35-12.64-16.49-5-22.89-2.69-32.36,2.17S34.86,435.74,34.86,435.74Z" transform="translate(-34.86 -341.22)" style="fill:#444141"/><path d="M105.17,416.57l1.12,3.92,2.46,6s-15.36-10.41-28.26-11.93S61.25,416,61.25,416s10.5-7.27,22.58-5.69A72.87,72.87,0,0,1,105.17,416.57Z" transform="translate(-34.86 -341.22)" style="fill:#444141"/><path d="M120.84,396.08s-6.71-.5-10.94,2.65a28.53,28.53,0,0,0-6.53,6.79s-3.4-6.93.3-9.23,4.4-.81,4.4-0.81-2-5.58,2.71-6.66C117.57,387.3,120.84,396.08,120.84,396.08Z" transform="translate(-34.86 -341.22)" style="fill:#444141"/></svg>