<svg id="Layer_1" data-name="Layer 1" xmlns="http://www.w3.org/2000/svg" viewBox="0 0 62.61 109.69"><title>white-tag</title><path d="M639.18,361.37l-2.84.83a5.73,5.73,0,0,0,2.24,11.23,42.52,42.52,0,0,0,4.11-1.34l2.4-.81a5.69,5.69,0,0,0,2.68-1.29C652.42,366.31,647.43,358.84,639.18,361.37Z" transform="translate(-609.15 -344.84)" style="fill:#494646"/><path d="M646.1,362.14a10.78,10.78,0,0,1-.84,2.35L641.09,366l-1.16.63-1,.79-1.42.4-2.28,1.14a6.25,6.25,0,0,1-.64,0,14,14,0,0,0-2.18.15s1,2.86,2.93,3.54a7.46,7.46,0,0,0,3.94.15l6.24-2.11a5.81,5.81,0,0,0,1.54-.49C651.13,367.93,647.57,362.59,646.1,362.14Z" transform="translate(-609.15 -344.84)" style="fill:#999"/><polygon points="57.91 108.81 57.91 107.85 58.95 107.68 60.17 105.33 61.95 103.23 60.3 101.23 57.3 100.1 43.53 100.89 16.7 101.5 8.01 102.83 5.64 103.85 3.73 106.98 3.04 108.61 33.78 108.99 57.91 108.81" style="fill:#f7f1e2;stroke:#969289;stroke-miterlimit:10"/><polygon points="0.63 7.55 0.79 6.26 1.85 6.11 2 5.13 4.54 2.45 6.59 1.91 6.48 12.15 6.79 47.55 8.01 102.83 7.28 103.83 6.38 104.55 7.19 105.06 5.37 105.36 4.25 106.99 3.85 107.9 3.04 108.61 2.63 94 1.51 56.68 0.5 16.61 0.63 7.55" style="fill:#f7f1e2;stroke:#969289;stroke-miterlimit:10"/><path d="M616.47,346.66l7.54-.33,0,0.19,0.29,1.45,0.7-1.56,12.74-.51,0.77,0.51,0.34-.34,18.72-.56L658,346l0.68-.38,9.45-.3,0.77,0.09,0.6,0.81L669.83,385l1.3,63.17-3.1.73-0.91-2.37-1.09,2-10.58.36-2-1.28-24.07,1.28-2-1.28-1.82.73-9.12.36-0.91-23-1.09-35.19V356.77l-0.73-9.48Zm20.55,28c4.74,3.59,10.37.72,11.23-.13l0.86-.86s1-5.48-.2-7c-2-2.63-3.42-4.35-6.29-5.07a9.31,9.31,0,0,0-8.82,2.21,9.78,9.78,0,0,0-.2,6.16A12.24,12.24,0,0,0,637,374.67Z" transform="translate(-609.15 -344.84)" style="fill:#e0dbca;stroke:#969289;stroke-miterlimit:10"/><path d="M634.07,363.58A4.94,4.94,0,0,1,635,362a11.23,11.23,0,0,1,2.6-1.67,18.49,18.49,0,0,1,2.72-.71l0.31-.68,0.36,0.17,0.12,0.29s3.59-.36,5.45.85a11.39,11.39,0,0,1,2.83,2.49c0.27,0.29.58,0.73,0.58,0.73l0.29,0,0.27,0.41-0.1.27a21.18,21.18,0,0,1,.92,3.69,8.31,8.31,0,0,1-.44,2l0.75,0.38-0.78.42a16,16,0,0,1-.85,2.1,8,8,0,0,1-2,1.89l0.78-3.66,0.41-.32-0.52-.32s0.28-3.44,0-4a4.72,4.72,0,0,0-.6-0.87l0.12-.17-0.34-.44-0.19,0a9.68,9.68,0,0,0-2.2-2.05,20.7,20.7,0,0,0-4.48-1.34l-0.11-.52h-0.51l0,0.34s-0.24-.26-1.4,0a11.25,11.25,0,0,0-3.55,1.35C634.72,363.14,634.07,363.58,634.07,363.58Z" transform="translate(-609.15 -344.84)" style="fill:#f7f1e2;stroke:#969289;stroke-miterlimit:10"/><path d="M642,433.38" transform="translate(-609.15 -344.84)" style="fill:#29abe2;stroke:#969289;stroke-miterlimit:10"/><path d="M636.76,405.79l5.83,10.33s0.57-7.68,1.72-7.34-0.6,7.77-.6,7.77l7-6.41,1-3.58s-0.22-4.33-2.67-6.45-2.29-3.84-2.29-3.84a14.27,14.27,0,0,1-5.14,4.65A11.76,11.76,0,0,0,636.76,405.79Z" transform="translate(-609.15 -344.84)" style="fill:#c1272d"/><path d="M635.46,406.08l6,10.6s-4.78-3.51-6.36-3.52-0.91,2.91,2.18,3.6,3.77,1.24,3.77,1.24l-10.3,1.89-1.74.42s-4.66-3.56-4.75-5.67-0.53-4.55-1-4.71a3.85,3.85,0,0,1-1-.89s4.87-4.46,6.68-3.77S635.46,406.08,635.46,406.08Z" transform="translate(-609.15 -344.84)" style="fill:#c1272d"/><path d="M630.16,421.24L641.09,419a37.69,37.69,0,0,0-3.16,4.13,20.34,20.34,0,0,0-.61,2.63s2.84-1.48,3.07-2.09S642,420,642,420l0.56,9.89,0.15,1.15a5.49,5.49,0,0,1-5,3.11c-3.92.18-5.84-1.25-6.41-1.07a2.36,2.36,0,0,0-1,.8,21.14,21.14,0,0,1-1.59-6.43A12.32,12.32,0,0,1,630.16,421.24Z" transform="translate(-609.15 -344.84)" style="fill:#c1272d"/><path d="M643.41,420.18s-1,8.89.27,10.67,6.31,4.68,8,4.35,4.1,1.17,4.1,1.17a7.13,7.13,0,0,0,1.68-7.75c-1.65-5-2.28-5.41-2.28-5.41l-8.31-3.08-0.49.5,2.86,4.65-0.43,1.12-1.15-.34-3.32-6.31Z" transform="translate(-609.15 -344.84)" style="fill:#c1272d"/><path d="M645.72,418l0.29,0.8s9,3.34,10,3.73,5.12-1,6.63-4.68,2.75-4.87,2.75-4.87a6.11,6.11,0,0,1-3.43-1.61c-1.43-1.43-4-3.09-6.18-3s-3.42.17-3.42,0.17l-0.66,1.72-4.65,4.15-1.92,2.43s5.8-1.73,7.21-1.29,0.25,1.68.25,1.68Z" transform="translate(-609.15 -344.84)" style="fill:#c1272d"/><path d="M644.4,418.85l-1.91.37-0.15-1.15s1.38-1.3,2-.68A1.16,1.16,0,0,1,644.4,418.85Z" transform="translate(-609.15 -344.84)" style="fill:#c1272d"/><path d="M651.43,365.33V353.2s-2-3.06-5.22-2.91a7.08,7.08,0,0,0-4.95,2.33l1.05,13.4,1.53-.11c0.48,2-.83,4.29,3.06,4.8C650.43,369.68,651.8,367.69,651.43,365.33Z" transform="translate(-609.15 -344.84)" style="fill:#494646"/><path d="M647.24,370.22a6.73,6.73,0,0,0,2.4-1.25,3.65,3.65,0,0,0,.95-1.7s-0.76-2-2.17-2.2a3.94,3.94,0,0,0-3.81,1.37l-0.44-6.4,0.21-8.81-1.33.58-1.17.88,1.15,9.09,0.42,4.75a5,5,0,0,0-1.67-.26C642.66,370,644.3,371.32,647.24,370.22Z" transform="translate(-609.15 -344.84)" style="fill:#999"/></svg>