<?xml version="1.0" encoding="UTF-8" standalone="no"?>
<!DOCTYPE svg PUBLIC "-//W3C//DTD SVG 1.1//EN" "http://www.w3.org/Graphics/SVG/1.1/DTD/svg11.dtd">
<svg width="100%" height="100%" viewBox="0 0 157 168" version="1.1" xmlns="http://www.w3.org/2000/svg" xmlns:xlink="http://www.w3.org/1999/xlink" xml:space="preserve" style="fill-rule:evenodd;clip-rule:evenodd;stroke-linecap:round;stroke-linejoin:round;stroke-miterlimit:1.5;">
    <g transform="matrix(1,0,0,1,-568.756,-569.91)">
        <g id="Scissors" transform="matrix(0.843361,0,0,0.843361,-45.4653,406.344)">
            <path d="M758.642,198.072L847.319,305.529L844.901,333.655L855.81,344.87L873.548,342.875L901.773,360.018L900.928,389.851L869.752,392.269L846.502,364.495L851.872,352.461L834.503,337.115L832.083,314.739L737.975,194.539L758.642,198.072ZM856.936,363.375L873.27,382.63L893.767,381.507L894.443,363.23L873.411,351.168L862.96,350.801L856.936,363.375Z" style="fill:rgb(214,214,214);stroke:rgb(171,171,171);stroke-width:1.19px;"/>
            <g transform="matrix(0.986122,-0.166023,0.166023,0.986122,-35.4313,142.312)">
                <path d="M740.457,205.665L825.342,328.733L845.368,322.078L862.515,325.638L867.213,334.029L868.988,342.746L872.934,339.158L886.715,348.126L905.147,339.961L906.887,321.535L875.808,314.943L867.026,320.61L828.996,308.452L742.659,196.153L740.457,205.665ZM886.514,339.951L898.517,335.736L900.401,326.722L876.876,321.18L869.891,325.71L872.466,334.237L886.514,339.951Z" style="fill:rgb(235,235,235);stroke:rgb(171,171,171);stroke-width:1.19px;"/>
            </g>
            <path d="M835.327,312.872L833.541,317.42L834.841,321.101L839.692,322.266L843.713,319.315L842.747,314.153L835.327,312.872Z" style="fill:rgb(214,214,214);"/>
            <path d="M836.413,314.621L835.587,317.038L842.553,318.398L842.212,315.841L836.413,314.621Z" style="fill:rgb(235,235,235);"/>
            <path d="M835.27,317.998L835.901,320.156L839.287,321.026L841.563,319.584L835.27,317.998Z" style="fill:rgb(235,235,235);"/>
        </g>
    </g>
</svg>
