<?xml version="1.0" encoding="UTF-8" standalone="no"?>
<!DOCTYPE svg PUBLIC "-//W3C//DTD SVG 1.1//EN" "http://www.w3.org/Graphics/SVG/1.1/DTD/svg11.dtd">
<svg width="100%" height="100%" viewBox="0 0 89 153" version="1.1" xmlns="http://www.w3.org/2000/svg" xmlns:xlink="http://www.w3.org/1999/xlink" xml:space="preserve" style="fill-rule:evenodd;clip-rule:evenodd;stroke-linecap:round;stroke-linejoin:round;stroke-miterlimit:1.5;">
    <g transform="matrix(1,0,0,1,-451.594,-355.726)">
        <g id="Unknown">
            <g transform="matrix(0.591552,0.131701,-0.131701,0.591552,240.223,78.9435)">
                <path d="M469.183,370.244L523.703,352.142L562.914,363.137L597.986,416.277L587.306,474.44L533.285,486.004L544.882,533.452L562.914,533.452L562.914,546.576L523.703,558.172L523.703,533.452L523.703,518.598L508.508,486.004L508.508,465.742L562.914,454.428L571.727,416.277L552.495,381.523L523.703,381.523L495.496,398.651L508.508,416.277L469.183,431.605L446.916,398.651L469.183,370.244Z" style="fill:rgb(214,214,214);stroke:rgb(171,171,171);stroke-width:1.65px;"/>
            </g>
            <path d="M456.995,377.841L455.553,374.335L469.898,361.321L503.313,358.23L523.68,368.755L503.233,360.833L471.531,365.086L460.807,373.847L460.582,378.001L456.995,377.841Z" style="fill:rgb(235,235,235);"/>
            <g transform="matrix(0.602045,0.142845,-0.142845,0.602045,263.955,121.655)">
                <path d="M495.691,486.849L510.397,493.401L515.511,508.689L497.956,522.884L476.756,509.353L483.257,491.553L495.691,486.849Z" style="fill:rgb(214,214,214);stroke:rgb(171,171,171);stroke-width:1.62px;"/>
            </g>
            <path d="M482.007,495.907L486.459,488.932L492.722,487.741L496.555,490.598L488.541,491.645L482.007,495.907Z" style="fill:rgb(235,235,235);"/>
            <path d="M480.209,434.075L481.938,424.784L513.517,424.856L484.825,427.389L480.209,434.075Z" style="fill:rgb(235,235,235);"/>
        </g>
    </g>
</svg>
